<svg width="130" height="133" viewBox="0 0 130 133" fill="none" xmlns="http://www.w3.org/2000/svg">
<g filter="url(#filter0_d)">
<rect x="20" y="23" width="90" height="90" rx="45" fill="#71369F"/>
<path fill-rule="evenodd" clip-rule="evenodd" d="M43.7857 72.9395H36.3652C33.4144 72.9395 31 70.5266 31 67.5771C31 64.6281 33.4144 62.2147 36.3652 62.2147H43.7857C46.737 62.2147 49.1515 64.6281 49.1515 67.5771C49.1515 70.5266 46.737 72.9395 43.7857 72.9395Z" fill="#19141E"/>
<path fill-rule="evenodd" clip-rule="evenodd" d="M46.0918 20C49.2799 20 51.8639 22.5823 51.8639 25.7679C51.8639 28.9535 49.2799 31.5364 46.0918 31.5364C42.9043 31.5364 40.3198 28.9535 40.3198 25.7679C40.3198 22.5823 42.9043 20 46.0918 20ZM89.5731 74.3923C89.5731 87.1057 79.1645 97.5078 66.4432 97.5078H64.22C51.4982 97.5078 41.0896 87.1057 41.0896 74.3923V61.9156C41.0896 49.2022 51.4982 38.8001 64.22 38.8001H66.4432C79.1645 38.8001 89.5731 49.2022 89.5731 61.9156V74.3923Z" fill="#6CA1FF"/>
<path d="M48.4116 31.0518C52.1957 34.345 54.3498 37.9866 54.9996 42.947C55.1191 43.8595 55.9562 44.5024 56.8693 44.3829C57.7824 44.2635 58.4257 43.4269 58.3062 42.5143C57.5578 36.8019 55.1054 32.5703 50.9664 28.8591C50.3545 29.8208 49.4654 30.5891 48.4116 31.0518Z" fill="#19141E"/>
<path fill-rule="evenodd" clip-rule="evenodd" d="M57.7592 63.5368C57.4679 65.1843 58.5679 66.7552 60.2164 67.0462C61.8643 67.3373 63.4367 66.238 63.728 64.5905C64.0192 62.9436 62.9193 61.3722 61.2707 61.0811C59.6228 60.7901 58.0498 61.8893 57.7592 63.5368Z" fill="#19141E"/>
<path fill-rule="evenodd" clip-rule="evenodd" d="M42.0241 63.6011C41.7328 65.2486 42.8333 66.8195 44.4813 67.1105C46.1298 67.4016 47.7016 66.3023 47.9929 64.6549C48.2841 63.0079 47.1842 61.4365 45.5357 61.1455C43.8877 60.8544 42.3153 61.9542 42.0241 63.6011Z" fill="#19141E"/>
<path opacity="0.403971" fill-rule="evenodd" clip-rule="evenodd" d="M54.2009 60.2662L46.553 72.3942L54.785 72.593L54.2009 60.2662Z" fill="black"/>
<path fill-rule="evenodd" clip-rule="evenodd" d="M92.8105 71.7921H85.6112V61.0673H92.8105C95.7618 61.0673 98.1762 63.4807 98.1762 66.4297C98.1762 69.3792 95.7618 71.7921 92.8105 71.7921Z" fill="#19141E"/>
<path d="M55.756 78.251C59.3977 78.8676 62.802 76.7891 63.1716 74.6105" stroke="#19141E" stroke-width="4.47137"/>
</g>
<defs>
<filter id="filter0_d" x="0.363636" y="0.363636" width="129.273" height="132.273" filterUnits="userSpaceOnUse" color-interpolation-filters="sRGB">
<feFlood flood-opacity="0" result="BackgroundImageFix"/>
<feColorMatrix in="SourceAlpha" type="matrix" values="0 0 0 0 0 0 0 0 0 0 0 0 0 0 0 0 0 0 127 0"/>
<feOffset/>
<feGaussianBlur stdDeviation="9.81818"/>
<feColorMatrix type="matrix" values="0 0 0 0 0 0 0 0 0 0 0 0 0 0 0 0 0 0 0.25 0"/>
<feBlend mode="normal" in2="BackgroundImageFix" result="effect1_dropShadow"/>
<feBlend mode="normal" in="SourceGraphic" in2="effect1_dropShadow" result="shape"/>
</filter>
</defs>
</svg>
