<svg width="425" height="417" viewBox="0 0 425 417" fill="none" xmlns="http://www.w3.org/2000/svg">
<path fill-rule="evenodd" clip-rule="evenodd" d="M223.013 409.815H209.604V362.058C209.604 354.942 203.872 349.173 196.802 349.173H155.481C148.411 349.173 142.68 354.942 142.68 362.058V408.498H130.892C126.706 408.498 123.314 411.913 123.314 416.126V571.047C123.314 575.259 126.706 578.674 130.892 578.674H154.858C159.043 578.674 162.436 575.259 162.436 571.047C162.436 566.834 159.043 563.419 154.858 563.419H138.47V530.049C142.961 523.145 148.607 519.033 154.74 519.033C169.379 519.033 181.245 542.46 181.245 571.359C181.245 600.258 169.379 623.686 154.74 623.686C141.353 623.686 130.283 604.089 128.489 578.633C125.421 577.658 123.196 574.77 123.196 571.359V484.43C109.501 503.834 100.579 535.539 100.579 571.359C100.579 630.412 124.828 678.284 154.741 678.284C155.46 678.284 156.176 678.257 156.888 678.202H196.828C197.54 678.257 198.256 678.284 198.976 678.284C228.889 678.284 253.137 630.412 253.137 571.359C253.137 535.602 244.246 503.944 230.591 484.531V417.443C230.591 413.23 227.199 409.815 223.013 409.815ZM209.604 434.101V425.07H215.435V469.461C210.245 466.196 204.714 464.434 198.976 464.434C198.919 464.434 198.863 464.434 198.807 464.434H154.909C154.877 464.434 154.845 464.434 154.814 464.434C154.789 464.434 154.765 464.434 154.74 464.434C149.071 464.434 143.605 466.153 138.47 469.343V423.754H142.68V434.101C142.68 441.217 148.411 446.986 155.481 446.986H196.802C203.872 446.986 209.604 441.217 209.604 434.101Z" fill="#6CA1FF"/>
<path fill-rule="evenodd" clip-rule="evenodd" d="M142.457 398.455H209.381V375.385H142.457V398.455Z" fill="#19141E"/>
<path opacity="0.395764" fill-rule="evenodd" clip-rule="evenodd" d="M215.943 469.528C215.716 469.375 215.486 469.221 215.253 469.067V425.449H209.198V410.194H222.831C227.016 410.194 230.409 413.609 230.409 417.821C230.529 447.095 230.59 469.107 230.591 483.855C230.174 483.304 229.753 482.763 229.328 482.234C229.007 481.79 228.693 481.352 228.405 481.039C228.33 480.957 228.257 480.878 228.186 480.8C243.417 499.723 253.537 533.208 253.537 571.359C253.537 630.412 229.289 678.285 199.376 678.285C198.657 678.285 197.941 678.257 197.228 678.202H157.289C186.205 675.976 209.302 628.992 209.302 571.359C209.302 512.417 185.144 464.614 155.31 464.434L199.207 464.435C199.263 464.434 199.32 464.434 199.376 464.434C205.154 464.434 210.721 466.22 215.943 469.528V469.528ZM224.804 476.926C225.21 477.353 225.612 477.79 226.012 478.236C225.656 477.82 225.275 477.398 224.804 476.926L224.804 476.926ZM138.47 563.419H154.858C159.043 563.419 162.436 566.834 162.436 571.047C162.436 575.259 159.043 578.674 154.858 578.674H130.892C126.706 578.674 123.314 575.259 123.314 571.047V416.126C123.314 411.913 126.706 408.498 130.892 408.498H154.858C159.043 408.498 162.436 411.913 162.436 416.126C162.436 420.339 159.043 423.754 154.858 423.754H138.47V563.419Z" fill="black"/>
<path fill-rule="evenodd" clip-rule="evenodd" d="M260.129 255.998C266.39 255.144 272.157 259.528 273.011 265.789L285.847 359.894C286.701 366.155 282.318 371.923 276.057 372.777C269.796 373.631 264.028 369.247 263.174 362.986L250.339 268.881C249.485 262.62 253.868 256.852 260.129 255.998Z" fill="#19141E"/>
<path fill-rule="evenodd" clip-rule="evenodd" d="M84.674 253.241C90.9284 254.142 95.2688 259.942 94.3686 266.196L80.8373 360.203C79.937 366.458 74.137 370.798 67.8826 369.898C61.6282 368.998 57.2878 363.198 58.188 356.943L71.7193 262.936C72.6196 256.682 78.4196 252.341 84.674 253.241Z" fill="#19141E"/>
<path fill-rule="evenodd" clip-rule="evenodd" d="M220.748 306.111H184.206C178.76 306.111 174.347 301.697 174.347 296.252V259.71C174.347 254.266 178.76 249.852 184.206 249.852H220.748C226.192 249.852 230.606 254.266 230.606 259.71V296.252C230.606 301.697 226.192 306.111 220.748 306.111" fill="#19141E"/>
<path fill-rule="evenodd" clip-rule="evenodd" d="M211.425 306.111H184.206C178.76 306.111 174.347 301.697 174.347 296.252V259.71C174.347 254.266 178.76 249.852 184.206 249.852H211.425C216.869 249.852 221.283 254.266 221.283 259.71V296.252C221.283 301.697 216.869 306.111 211.425 306.111" fill="#405FD3"/>
<path fill-rule="evenodd" clip-rule="evenodd" d="M84.5358 294.631C84.2791 294.637 84.0217 294.64 83.7636 294.64C66.7778 294.64 53.0084 280.87 53.0084 263.884C53.0084 246.899 66.7778 233.128 83.7636 233.128C87.3916 233.128 90.873 233.756 94.1048 234.91C109.26 207.641 138.359 189.188 171.769 189.188C203.639 189.188 231.587 205.978 247.25 231.195C250.357 230.139 253.686 229.567 257.15 229.567C274.136 229.567 287.906 243.337 287.906 260.323C287.906 276.478 275.45 289.724 259.618 290.98C253.328 333.857 216.393 366.774 171.769 366.774C128.421 366.774 92.3287 335.711 84.5358 294.631ZM30.9642 379.558C30.0311 367.059 39.4079 356.171 51.9069 355.238L83.3079 352.895C95.8069 351.962 106.695 361.339 107.627 373.837L112.968 445.414C113.9 457.913 104.524 468.801 92.0262 469.734L60.6244 472.078C48.1253 473.01 37.2374 463.633 36.3052 451.135L30.9642 379.558ZM258.569 351.357C246.036 351.29 235.821 361.396 235.755 373.929L235.373 445.704C235.306 458.238 245.413 468.452 257.946 468.519L289.434 468.687C301.967 468.754 312.182 458.647 312.248 446.113L312.63 374.339C312.697 361.806 302.591 351.592 290.058 351.524L258.569 351.357Z" fill="#6CA1FF"/>
<path fill-rule="evenodd" clip-rule="evenodd" d="M137.864 195.968H205.676V173.543H137.864V195.968Z" fill="#19141E"/>
<path fill-rule="evenodd" clip-rule="evenodd" d="M211.425 306.111C216.869 306.111 221.283 301.697 221.283 296.252V259.71C221.283 254.266 216.869 249.852 211.425 249.852H220.748C226.192 249.852 230.606 254.266 230.606 259.71V296.252C230.606 301.697 226.192 306.111 220.748 306.111H211.425Z" fill="#19141E"/>
<path opacity="0.401762" fill-rule="evenodd" clip-rule="evenodd" d="M57.8357 369.34C62.0352 369.009 65.7077 372.146 66.0384 376.345L71.676 447.943C72.0067 452.142 68.8704 455.815 64.6708 456.146C61.5532 456.391 58.7261 454.726 57.341 452.133C56.4042 454.959 53.8503 457.091 50.6968 457.339C46.4972 457.67 42.8247 454.534 42.4941 450.334L36.8564 378.737C36.5258 374.537 39.6621 370.865 43.8617 370.534C46.9793 370.289 49.8064 371.954 51.1915 374.546C52.1282 371.721 54.6822 369.588 57.8357 369.34Z" fill="black"/>
<path opacity="0.397763" fill-rule="evenodd" clip-rule="evenodd" d="M211.462 306.077H184.242C178.797 306.077 174.383 301.664 174.383 296.218V259.676C174.383 254.232 178.797 249.818 184.242 249.818H211.462C216.906 249.818 221.32 254.232 221.32 259.676V296.218C221.32 301.664 216.906 306.077 211.462 306.077ZM188.898 275.12C192.843 275.12 196.041 271.923 196.041 267.978C196.041 264.033 192.843 260.836 188.898 260.836C184.954 260.836 181.757 264.033 181.757 267.978C181.757 271.923 184.954 275.12 188.898 275.12ZM209.196 275.12C213.14 275.12 216.338 271.923 216.338 267.978C216.338 264.033 213.14 260.836 209.196 260.836C205.251 260.836 202.053 264.033 202.053 267.978C202.053 271.923 205.251 275.12 209.196 275.12ZM188.898 295.764C192.843 295.764 196.041 292.566 196.041 288.621C196.041 284.677 192.843 281.479 188.898 281.479C184.954 281.479 181.757 284.677 181.757 288.621C181.757 292.566 184.954 295.764 188.898 295.764Z" fill="black"/>
<path fill-rule="evenodd" clip-rule="evenodd" d="M52.0147 264.303C52.0147 281.7 66.1174 295.803 83.5143 295.803C100.911 295.803 115.015 281.7 115.015 264.303C115.015 246.907 100.911 232.803 83.5143 232.803C66.1174 232.803 52.0147 246.907 52.0147 264.303" fill="#41619A"/>
<path fill-rule="evenodd" clip-rule="evenodd" d="M247 230.644C250.133 229.578 253.491 229 256.983 229C274.113 229 288 242.902 288 260.05C288 276.359 275.438 289.731 259.472 291C260.1 286.717 260.425 282.335 260.425 277.877C260.425 260.543 255.51 244.359 247 230.644H247Z" fill="#41619A"/>
<path opacity="0.598121" fill-rule="evenodd" clip-rule="evenodd" d="M188.899 295.757C192.843 295.757 196.041 292.56 196.041 288.614C196.041 284.67 192.843 281.473 188.899 281.473C184.954 281.473 181.757 284.67 181.757 288.614C181.757 292.56 184.954 295.757 188.899 295.757" fill="black"/>
<path fill-rule="evenodd" clip-rule="evenodd" d="M235.401 373.313L235.015 444.885C234.947 457.384 245.151 467.569 257.804 467.636L289.595 467.803C302.249 467.87 312.562 457.792 312.628 445.293L313.014 373.721C313.082 361.223 302.878 351.038 290.225 350.97L258.434 350.804C245.781 350.737 235.468 360.814 235.401 373.313" fill="#41619A"/>
<path fill-rule="evenodd" clip-rule="evenodd" d="M152.624 66.1427C153.269 65.1667 154.584 64.8988 155.56 65.5443L154.391 67.3115C155.56 65.5443 155.561 65.5447 155.561 65.5452L155.563 65.5464L155.568 65.5495L155.581 65.5584L155.623 65.5869C155.659 65.6108 155.708 65.6443 155.769 65.6873C155.893 65.7734 156.068 65.8978 156.288 66.0598C156.727 66.3837 157.346 66.859 158.089 67.4805C159.572 68.7219 161.561 70.5564 163.604 72.945C167.678 77.7081 172.058 84.7849 172.927 93.8306C173.039 94.9954 172.186 96.0305 171.021 96.1424C169.856 96.2544 168.821 95.401 168.709 94.2362C167.951 86.3478 164.117 80.0638 160.384 75.6993C158.524 73.5243 156.711 71.8534 155.369 70.7304C154.699 70.1697 154.149 69.748 153.773 69.4705C153.585 69.3318 153.44 69.2294 153.346 69.1638C153.299 69.131 153.265 69.1075 153.244 69.0933L153.223 69.079L153.222 69.0787C153.222 69.0785 153.222 69.0782 153.221 69.078M152.624 66.1427C151.979 67.1183 152.246 68.4322 153.221 69.078Z" fill="#19141E"/>
<path fill-rule="evenodd" clip-rule="evenodd" d="M152.991 74.646C157.924 74.646 161.922 70.6466 161.922 65.7141C161.922 60.7816 157.924 56.7831 152.991 56.7831C148.059 56.7831 144.059 60.7816 144.059 65.7141C144.059 70.6466 148.059 74.646 152.991 74.646ZM110.446 138.525H155.26V174.015H180.989V138.525H223.449C233.179 138.525 241.141 130.563 241.141 120.833V108.906C241.141 99.1758 233.179 91.2144 223.449 91.2144H110.446C100.715 91.2144 92.754 99.1758 92.754 108.906V120.833C92.754 130.563 100.715 138.525 110.446 138.525Z" fill="#6CA1FF"/>
<path opacity="0.399042" fill-rule="evenodd" clip-rule="evenodd" d="M155.26 174.015H180.989V138.42H155.26V174.015Z" fill="black"/>
<path opacity="0.400367" fill-rule="evenodd" clip-rule="evenodd" d="M155.26 162.502L180.99 154.027V138.277H155.26V162.502Z" fill="black"/>
<path fill-rule="evenodd" clip-rule="evenodd" d="M110.445 138.525V138.525C100.715 138.525 92.7537 130.563 92.7537 120.833V108.906C92.7537 99.176 100.715 91.2145 110.445 91.2145C120.176 91.2145 128.137 99.176 128.137 108.906V120.833C128.137 130.563 120.176 138.525 110.445 138.525" fill="#19141E"/>
<path fill-rule="evenodd" clip-rule="evenodd" d="M138.193 114.87C138.193 122.361 144.266 128.434 151.757 128.434C159.249 128.434 165.323 122.361 165.323 114.87C165.323 107.378 159.249 101.305 151.757 101.305C144.266 101.305 138.193 107.378 138.193 114.87" fill="white"/>
<path fill-rule="evenodd" clip-rule="evenodd" d="M147.283 112.964C147.283 116.406 150.073 119.196 153.515 119.196C156.956 119.196 159.746 116.406 159.746 112.964C159.746 109.522 156.956 106.732 153.515 106.732C150.073 106.732 147.283 109.522 147.283 112.964" fill="#19141E"/>
<path fill-rule="evenodd" clip-rule="evenodd" d="M204.341 114.87C204.341 122.361 210.414 128.434 217.906 128.434C225.398 128.434 231.471 122.361 231.471 114.87C231.471 107.378 225.398 101.305 217.906 101.305C210.414 101.305 204.341 107.378 204.341 114.87" fill="white"/>
<path fill-rule="evenodd" clip-rule="evenodd" d="M213.431 112.964C213.431 116.406 216.221 119.196 219.662 119.196C223.104 119.196 225.894 116.406 225.894 112.964C225.894 109.522 223.104 106.732 219.662 106.732C216.221 106.732 213.431 109.522 213.431 112.964" fill="#19141E"/>
<path fill-rule="evenodd" clip-rule="evenodd" d="M181.732 105.572L193.864 114.779L181.732 124.167" fill="#19141E"/>
</svg>
