<svg width="280" height="77" viewBox="0 0 280 77" fill="none" xmlns="http://www.w3.org/2000/svg">
<path d="M25.4346 76.3827C17.862 76.3827 11.8986 74.3318 7.54433 70.23C3.19008 66.1281 0.918273 60.1647 0.728958 52.3397V49.0267C0.981378 41.5803 3.28473 35.7746 7.63898 31.6097C12.0563 27.3816 17.9566 25.2676 25.3399 25.2676C30.7039 25.2676 35.2159 26.3719 38.876 28.5806C42.5992 30.7262 45.3758 33.6921 47.2059 37.4784C49.099 41.2647 50.0456 45.619 50.0456 50.5412V52.813C50.0456 53.444 49.8247 54.012 49.383 54.5168C48.9412 54.9585 48.3733 55.1794 47.6791 55.1794H17.3887V55.842C17.5149 58.8079 18.2406 61.2059 19.5658 63.036C20.891 64.866 22.8157 65.781 25.3399 65.781C26.9176 65.781 28.2112 65.4655 29.2209 64.8345C30.2306 64.1403 31.1456 63.32 31.966 62.3734C32.5339 61.6792 32.9757 61.269 33.2912 61.1428C33.6698 60.9535 34.2378 60.8589 34.995 60.8589H46.7326C47.3005 60.8589 47.7738 61.0482 48.1525 61.4268C48.5942 61.7423 48.8151 62.1841 48.8151 62.752C48.8151 64.3927 47.8685 66.2859 45.9753 68.4315C44.1453 70.577 41.4633 72.4386 37.9294 74.0163C34.3955 75.5939 30.2306 76.3827 25.4346 76.3827ZM33.3858 45.8083V45.619C33.3858 42.5268 32.6602 40.0973 31.2087 38.3303C29.8204 36.5003 27.8641 35.5853 25.3399 35.5853C22.8788 35.5853 20.9226 36.5003 19.4712 38.3303C18.0829 40.0973 17.3887 42.5268 17.3887 45.619V45.8083H33.3858Z" fill="white"/>
<path d="M49.9273 75.4361C49.2331 75.4361 48.6652 75.2153 48.2235 74.7735C47.7817 74.3318 47.5608 73.7638 47.5608 73.0697V28.5806C47.5608 27.8865 47.7817 27.3185 48.2235 26.8768C48.6652 26.435 49.2331 26.2142 49.9273 26.2142H60.245C60.9391 26.2142 61.5071 26.435 61.9488 26.8768C62.3905 27.3185 62.6114 27.8865 62.6114 28.5806V31.799C64.0628 29.9058 65.9875 28.3597 68.3855 27.1607C70.8466 25.8986 73.5917 25.2676 76.6207 25.2676C83.5623 25.2676 88.3583 27.9811 91.0087 33.4081C92.5232 31.0102 94.6372 29.0539 97.3508 27.5394C100.064 26.0249 102.967 25.2676 106.059 25.2676C111.234 25.2676 115.43 27.0345 118.649 30.5684C121.93 34.0392 123.571 39.2454 123.571 46.1869V73.0697C123.571 73.7007 123.35 74.2687 122.908 74.7735C122.467 75.2153 121.899 75.4361 121.204 75.4361H110.224C109.53 75.4361 108.931 75.2153 108.426 74.7735C107.984 74.3318 107.763 73.7638 107.763 73.0697V46.8495C107.763 43.6943 107.101 41.4225 105.775 40.0342C104.513 38.6459 102.778 37.9517 100.569 37.9517C98.5497 37.9517 96.8775 38.6774 95.5523 40.1288C94.2271 41.5172 93.5644 43.7574 93.5644 46.8495V73.0697C93.5644 73.7007 93.3436 74.2687 92.9018 74.7735C92.4601 75.2153 91.8922 75.4361 91.198 75.4361H80.2177C79.5236 75.4361 78.9556 75.2153 78.5139 74.7735C78.0721 74.3318 77.8513 73.7638 77.8513 73.0697V46.8495C77.8513 43.7574 77.1571 41.5172 75.7688 40.1288C74.4436 38.6774 72.7398 37.9517 70.6573 37.9517C68.638 37.9517 66.9341 38.6774 65.5458 40.1288C64.2206 41.5172 63.558 43.7258 63.558 46.7549V73.0697C63.558 73.7007 63.3371 74.2687 62.8954 74.7735C62.4536 75.2153 61.8857 75.4361 61.1915 75.4361H49.9273Z" fill="white"/>
<path d="M192.041 76.3827C184.91 76.3827 179.136 74.4896 174.719 70.7032C170.301 66.8538 167.935 61.5215 167.619 54.7061L167.525 50.9198L167.619 47.0388C167.872 40.2235 170.207 34.8911 174.624 31.0417C179.104 27.1923 184.91 25.2676 192.041 25.2676C197.405 25.2676 201.917 26.2457 205.577 28.202C209.3 30.0951 212.045 32.3985 213.812 35.112C215.642 37.7624 216.62 40.1919 216.746 42.4006C216.81 43.0317 216.589 43.5996 216.084 44.1045C215.642 44.5462 215.074 44.7671 214.38 44.7671H202.359C201.664 44.7671 201.128 44.6093 200.749 44.2938C200.371 43.9782 200.024 43.505 199.708 42.8739C198.951 40.9177 197.973 39.5293 196.774 38.709C195.638 37.8886 194.155 37.4784 192.325 37.4784C187.15 37.4784 184.468 40.823 184.279 47.5121L184.184 51.1091L184.279 54.2328C184.405 57.6405 185.131 60.1647 186.456 61.8054C187.844 63.3831 189.801 64.1719 192.325 64.1719C194.281 64.1719 195.827 63.7617 196.963 62.9413C198.099 62.121 199.014 60.7326 199.708 58.7764C200.024 58.1453 200.371 57.672 200.749 57.3565C201.128 57.041 201.664 56.8832 202.359 56.8832H214.38C215.011 56.8832 215.548 57.1041 215.989 57.5458C216.494 57.9245 216.746 58.4293 216.746 59.0604C216.746 61.0797 215.863 63.4462 214.096 66.1597C212.392 68.8732 209.679 71.2712 205.956 73.3537C202.232 75.373 197.594 76.3827 192.041 76.3827Z" fill="white"/>
<path d="M216.258 75.4361C215.627 75.4361 215.06 75.2153 214.555 74.7735C214.113 74.2687 213.892 73.7007 213.892 73.0697V10.5957C213.892 9.90151 214.113 9.33357 214.555 8.89183C215.06 8.45009 215.627 8.22923 216.258 8.22923H228.375C229.069 8.22923 229.637 8.45009 230.078 8.89183C230.52 9.33357 230.741 9.90151 230.741 10.5957V31.7043C234.527 27.4132 239.513 25.2676 245.697 25.2676C249.357 25.2676 252.607 26.088 255.447 27.7287C258.35 29.3694 260.621 31.799 262.262 35.0173C263.903 38.2357 264.723 42.1167 264.723 46.6602V73.0697C264.723 73.7007 264.502 74.2687 264.061 74.7735C263.619 75.2153 263.051 75.4361 262.357 75.4361H250.146C249.515 75.4361 248.947 75.2153 248.442 74.7735C248 74.2687 247.779 73.7007 247.779 73.0697V47.2282C247.779 44.2622 247.054 41.9904 245.602 40.4128C244.214 38.7721 242.163 37.9517 239.45 37.9517C236.736 37.9517 234.591 38.7721 233.013 40.4128C231.498 41.9904 230.741 44.2622 230.741 47.2282V73.0697C230.741 73.7638 230.52 74.3318 230.078 74.7735C229.637 75.2153 229.069 75.4361 228.375 75.4361H216.258Z" fill="white"/>
<path d="M266.464 75.4361C265.77 75.4361 265.202 75.2153 264.76 74.7735C264.318 74.3318 264.098 73.7638 264.098 73.0697V28.5806C264.098 27.8865 264.318 27.3185 264.76 26.8768C265.202 26.435 265.77 26.2142 266.464 26.2142H277.634C278.328 26.2142 278.896 26.435 279.337 26.8768C279.779 27.3185 280 27.8865 280 28.5806V73.0697C280 73.7007 279.779 74.2687 279.337 74.7735C278.896 75.2153 278.328 75.4361 277.634 75.4361H266.464Z" fill="white"/>
<path d="M279.443 13.7509C279.443 18.1074 275.911 21.6391 271.555 21.6391C267.198 21.6391 263.667 18.1074 263.667 13.7509C263.667 9.39443 267.198 5.86279 271.555 5.86279C275.911 5.86279 279.443 9.39443 279.443 13.7509Z" fill="white"/>
<path fill-rule="evenodd" clip-rule="evenodd" d="M124.989 52.4071H117.728C114.841 52.4071 112.478 50.046 112.478 47.1598C112.478 44.2742 114.841 41.9125 117.728 41.9125H124.989C127.877 41.9125 130.24 44.2742 130.24 47.1598C130.24 50.046 127.877 52.4071 124.989 52.4071Z" fill="#19141E"/>
<path fill-rule="evenodd" clip-rule="evenodd" d="M127.246 0.604248C130.366 0.604248 132.894 3.13116 132.894 6.24836C132.894 9.36556 130.366 11.893 127.246 11.893C124.127 11.893 121.598 9.36556 121.598 6.24836C121.598 3.13116 124.127 0.604248 127.246 0.604248ZM169.794 53.8292C169.794 66.2697 159.609 76.4486 147.161 76.4486H144.985C132.537 76.4486 122.352 66.2697 122.352 53.8292V41.6202C122.352 29.1797 132.537 19.0008 144.985 19.0008H147.161C159.609 19.0008 169.794 29.1797 169.794 41.6202V53.8292Z" fill="#6CA1FF"/>
<path d="M129.515 11.4191C133.218 14.6416 135.326 18.2052 135.962 23.059C136.079 23.952 136.898 24.5811 137.791 24.4642C138.685 24.3473 139.314 23.5286 139.197 22.6357C138.465 17.0459 136.065 12.9051 132.015 9.27356C131.416 10.2146 130.546 10.9664 129.515 11.4191Z" fill="#19141E"/>
<path fill-rule="evenodd" clip-rule="evenodd" d="M138.662 43.2064C138.377 44.8185 139.454 46.3557 141.067 46.6405C142.68 46.9253 144.218 45.8496 144.503 44.2375C144.788 42.6259 143.712 41.0882 142.099 40.8034C140.486 40.5186 138.947 41.5943 138.662 43.2064Z" fill="#19141E"/>
<path fill-rule="evenodd" clip-rule="evenodd" d="M123.265 43.2695C122.98 44.8816 124.057 46.4187 125.67 46.7036C127.283 46.9884 128.821 45.9127 129.106 44.3006C129.391 42.689 128.315 41.1513 126.702 40.8665C125.089 40.5817 123.55 41.6579 123.265 43.2695Z" fill="#19141E"/>
<path opacity="0.403971" fill-rule="evenodd" clip-rule="evenodd" d="M135.181 40.0062L127.697 51.8738L135.753 52.0684L135.181 40.0062Z" fill="black"/>
<path fill-rule="evenodd" clip-rule="evenodd" d="M172.962 51.2847H165.917V40.79H172.962C175.85 40.79 178.212 43.1517 178.212 46.0374C178.212 48.9236 175.85 51.2847 172.962 51.2847Z" fill="#19141E"/>
<path d="M136.703 57.6048C140.266 58.2082 143.598 56.1742 143.959 54.0425" stroke="#19141E" stroke-width="2.7602"/>
</svg>
