<svg width="408" height="464" viewBox="0 0 408 464" fill="none" xmlns="http://www.w3.org/2000/svg">
<path d="M226.905 419.986L208.168 626.799" stroke="#19141E" stroke-width="25.9781" stroke-linecap="round"/>
<path d="M301.373 418.479L302.407 624.767" stroke="#19141E" stroke-width="25.9781" stroke-linecap="round"/>
<path fill-rule="evenodd" clip-rule="evenodd" d="M310.834 411.296C310.834 419.328 304.272 425.898 296.25 425.898H230.542C222.522 425.898 215.959 419.328 215.959 411.296C215.959 403.266 222.522 396.695 230.542 396.695H296.25C304.272 396.695 310.834 403.266 310.834 411.296ZM297.367 603.396C297.32 603.395 297.274 603.395 297.227 603.395C286.234 603.395 277.324 614.8 277.324 628.869C277.324 642.937 286.233 654.34 297.226 654.341L308.171 654.341V654.332C318.912 653.964 327.531 642.705 327.531 628.869C327.531 615.032 318.912 603.773 308.171 603.405V603.396H307.769L307.718 603.396L307.628 603.395C307.582 603.395 307.535 603.395 307.488 603.396H297.367ZM204.175 603.396C204.128 603.395 204.081 603.395 204.034 603.395C193.042 603.395 184.131 614.8 184.131 628.869C184.131 642.937 193.042 654.341 204.034 654.341L214.979 654.341V654.332C225.719 653.963 234.338 642.704 234.338 628.869C234.338 615.033 225.719 603.773 214.979 603.405V603.396H214.576L214.501 603.395L214.435 603.395C214.388 603.395 214.342 603.395 214.295 603.396H204.175ZM268.883 908.51H351.408L338.369 875.077L268.883 908.51ZM232.05 908.51H149.525L219.012 875.077L232.05 908.51Z" fill="#DC9141"/>
<path d="M110.479 398.32L134.687 221.108" stroke="#19141E" stroke-width="43.838" stroke-linecap="round"/>
<path fill-rule="evenodd" clip-rule="evenodd" d="M335.892 376.449H184.933L161.913 351.706H358.912L335.892 376.449Z" fill="#19141E"/>
<path d="M425.671 392.429L400.151 215.4" stroke="#19141E" stroke-width="43.838" stroke-linecap="round"/>
<path fill-rule="evenodd" clip-rule="evenodd" d="M122.105 316.258V266.293C120.913 266.063 119.721 265.779 118.532 265.439C96.5239 259.156 83.7853 236.25 90.0781 214.275C96.3699 192.301 119.313 179.581 141.321 185.865C142.233 186.126 143.129 186.415 144.008 186.731C149.798 183.632 156.401 181.872 163.397 181.872H357.428C363.729 181.872 369.712 183.3 375.068 185.848C381.392 181.946 388.845 179.694 396.825 179.694C419.715 179.694 438.271 198.222 438.271 221.076C438.271 243.297 420.73 261.427 398.719 262.416V316.258C398.719 338.933 380.139 357.486 357.428 357.486H163.397C140.686 357.486 122.105 338.933 122.105 316.258ZM70.5339 624.999C70.1515 615.306 73.3783 606.306 79.0188 599.292C62.3439 589.948 51.0378 572.083 51.1066 551.735L51.4832 439.655C51.5831 409.803 76.1281 385.461 106.027 385.561C135.924 385.662 160.305 410.168 160.205 440.02L159.828 552.1C159.767 570.323 150.596 586.493 136.66 596.303C142.958 602.629 147.114 611.107 147.824 620.542C147.931 621.966 147.96 623.377 147.915 624.771C147.711 631.088 139.609 633.463 136.001 628.271C131.885 622.351 126.221 618.774 120.105 619.015C108.369 619.477 99.4098 633.832 100.09 651.081L100.091 651.1L100.093 651.135L100.093 651.139C100.094 651.157 100.094 651.174 100.095 651.191C100.31 656.331 94.8979 659.774 90.3976 657.269C78.9989 650.925 71.0853 638.977 70.5339 624.999ZM436.368 600.472C455.336 593.125 469.47 575.389 471.077 553.877L479.43 442.107C481.655 412.337 459.079 386.163 429.264 383.942C399.449 381.72 373.234 404.26 371.009 434.03L362.657 545.8C361.26 564.491 369.639 581.764 383.447 592.582C373.895 599.353 367.489 610.324 367.048 622.7C366.997 624.127 367.024 625.539 367.124 626.93C367.578 633.233 375.765 635.288 379.167 629.958C383.046 623.881 388.565 620.083 394.685 620.083C406.429 620.083 415.949 634.075 415.949 651.338V651.448C415.936 656.593 421.48 659.821 425.88 657.14C437.018 650.352 444.453 638.102 444.453 624.114C444.453 615.209 441.437 607.007 436.368 600.472ZM295.959 376.321V400.212H224.865V376.321H295.959Z" fill="#F1B153"/>
<path opacity="0.394764" fill-rule="evenodd" clip-rule="evenodd" d="M367.049 622.7C366.998 624.127 367.025 625.539 367.124 626.93C367.578 633.233 375.765 635.288 379.167 629.958C383.046 623.881 388.565 620.083 394.685 620.083C406.429 620.083 415.949 634.075 415.949 651.338V651.448C415.937 656.593 421.481 659.821 425.88 657.14C437.019 650.352 444.454 638.102 444.454 624.114C444.454 602.374 426.474 584.825 404.541 585.482C384.334 586.088 367.766 602.528 367.049 622.7ZM177.029 266.655C177.029 293.142 196.338 315.121 221.668 319.338C222.033 319.276 222.387 319.214 222.75 319.141C247.551 314.508 266.318 292.768 266.318 266.655C266.318 240.542 247.551 218.802 222.75 214.17C222.387 214.097 222.033 214.035 221.668 213.972C196.338 218.19 177.029 240.168 177.029 266.655ZM261.753 266.727C261.753 283.815 247.879 297.668 230.764 297.668C213.649 297.668 199.775 283.815 199.775 266.727C199.775 249.638 213.649 235.785 230.764 235.785C247.879 235.785 261.753 249.638 261.753 266.727ZM438.489 221.077C438.489 198.223 419.933 179.695 397.043 179.695C374.153 179.695 355.597 198.223 355.597 221.077C355.597 243.932 374.153 262.459 397.043 262.459C419.933 262.459 438.489 243.932 438.489 221.077ZM428.49 213.407C428.49 224.494 419.488 233.482 408.384 233.482C397.279 233.482 388.278 224.494 388.278 213.407C388.278 202.319 397.279 193.332 408.384 193.332C419.488 193.332 428.49 202.319 428.49 213.407ZM144.082 186.841C143.203 186.524 142.307 186.235 141.395 185.975C119.387 179.691 96.444 192.411 90.1522 214.385C83.8594 236.359 96.598 259.266 118.606 265.549C119.795 265.889 120.987 266.173 122.179 266.403V223.21C122.179 207.519 131.076 193.802 144.082 186.841ZM79.0204 599.09C73.3799 606.104 70.1531 615.104 70.5356 624.796C71.0869 638.774 79.0005 650.722 90.3992 657.067C94.8996 659.572 100.311 656.129 100.097 650.988C100.095 650.952 100.094 650.916 100.092 650.878C99.4114 633.629 108.371 619.275 120.106 618.812C126.222 618.571 131.887 622.149 136.002 628.068C139.611 633.261 147.713 630.885 147.917 624.569C147.961 623.175 147.932 621.763 147.825 620.339C147.116 610.905 142.959 602.427 136.662 596.101C150.598 586.291 159.768 570.121 159.83 551.898L160.206 439.818C160.306 409.965 135.926 385.459 106.028 385.359C76.1297 385.259 51.5847 409.601 51.4848 439.453L51.1082 551.533C51.0395 571.881 62.3455 589.746 79.0204 599.09ZM294.709 309.507C294.709 303.638 289.944 298.88 284.066 298.88C278.187 298.88 273.423 303.638 273.423 309.507C273.423 315.376 278.187 320.134 284.066 320.134C289.944 320.134 294.709 315.376 294.709 309.507ZM325.472 309.507C325.472 303.638 320.706 298.88 314.829 298.88C308.951 298.88 304.185 303.638 304.185 309.507C304.185 315.376 308.951 320.134 314.829 320.134C320.706 320.134 325.472 315.376 325.472 309.507ZM465.709 450.41C466.164 444.558 461.781 439.447 455.92 438.993C450.059 438.541 444.939 442.917 444.486 448.768C444.031 454.62 448.415 459.73 454.275 460.184C460.136 460.637 465.254 456.261 465.709 450.41ZM463.433 479.726C463.888 473.874 459.505 468.763 453.645 468.309C447.784 467.856 442.664 472.232 442.211 478.083C441.756 483.935 446.139 489.046 452 489.5C457.861 489.953 462.978 485.577 463.433 479.726ZM461.104 509.75C461.558 503.899 457.176 498.787 451.314 498.333C445.453 497.881 440.335 502.257 439.881 508.108C439.427 513.96 443.81 519.071 449.67 519.524C455.531 519.978 460.649 515.602 461.104 509.75ZM296.487 399.9V376.01H224.706V399.9H296.487Z" fill="black"/>
<path fill-rule="evenodd" clip-rule="evenodd" d="M221.918 319.407C196.588 315.19 177.279 293.211 177.279 266.724C177.279 240.237 196.588 218.258 221.918 214.041C219.047 213.563 216.094 213.314 213.086 213.314C183.542 213.314 159.593 237.225 159.593 266.724C159.593 296.223 183.542 320.134 213.086 320.134C216.094 320.134 219.047 319.885 221.918 319.407Z" fill="#19141E"/>
<path d="M200.08 107.242H231.773" stroke="#19141E" stroke-width="8.11816" stroke-linecap="round"/>
<path d="M296.824 64.0864C302.85 64.0864 307.781 69.0088 307.781 75.026" stroke="white" stroke-width="8.11816" stroke-linecap="round"/>
<path d="M343.796 107.242H304.814" stroke="#19141E" stroke-width="8.11816" stroke-linecap="round"/>
<path fill-rule="evenodd" clip-rule="evenodd" d="M201.54 165.674C195.785 166.084 191.243 170.875 191.243 176.726V181.706H339.223V176.726C339.223 170.875 334.682 166.084 328.927 165.674V163.701C328.927 156.958 323.992 151.31 317.551 150.178V68.8476C317.551 61.2589 311.332 55.0505 303.732 55.0505H226.734C219.134 55.0505 212.916 61.2589 212.916 68.8476V150.178C206.474 151.31 201.54 156.958 201.54 163.701V165.674ZM178.05 107.242C178.05 114.645 184.06 120.647 191.474 120.647C198.888 120.647 204.899 114.645 204.899 107.242C204.899 99.8393 198.888 93.8387 191.474 93.8387C184.06 93.8387 178.05 99.8393 178.05 107.242ZM343.4 93.8387C350.814 93.8387 356.825 99.8393 356.825 107.242C356.825 114.645 350.814 120.647 343.4 120.647C335.985 120.647 329.974 114.645 329.974 107.242C329.974 99.8393 335.985 93.8387 343.4 93.8387Z" fill="#DC9141"/>
<path opacity="0.395926" fill-rule="evenodd" clip-rule="evenodd" d="M328.927 165.674V162.252C328.324 156.047 322.739 149.972 315.176 149.972H215.291C207.728 149.972 202.377 155.58 201.54 161.805V165.674C195.785 166.084 191.244 170.875 191.244 176.726V181.706H339.223V176.726C339.223 170.875 334.682 166.084 328.927 165.674ZM178.05 107.242C178.05 114.645 184.06 120.647 191.474 120.647C198.888 120.647 204.899 114.645 204.899 107.242C204.899 99.8394 198.888 93.8388 191.474 93.8388C184.06 93.8388 178.05 99.8394 178.05 107.242ZM356.825 107.242C356.825 99.8393 350.814 93.8387 343.4 93.8387C335.985 93.8387 329.974 99.8393 329.974 107.242C329.974 114.645 335.985 120.647 343.4 120.647C350.814 120.647 356.825 114.645 356.825 107.242Z" fill="black"/>
<path d="M328.05 166.003H201.851" stroke="#19141E" stroke-width="8.11816"/>
<path d="M296.011 129.102H212.916" stroke="#19141E" stroke-width="11.3654"/>
<path fill-rule="evenodd" clip-rule="evenodd" d="M274.294 89.6618C280.151 94.4752 280.99 103.118 276.169 108.966C271.349 114.814 262.692 115.652 256.835 110.839C250.978 106.026 250.139 97.3825 254.96 91.5346C259.78 85.6867 268.437 84.8485 274.294 89.6618Z" fill="white"/>
<path fill-rule="evenodd" clip-rule="evenodd" d="M266.954 95.5329C269.644 97.7443 270.03 101.714 267.815 104.401C265.601 107.087 261.625 107.473 258.934 105.261C256.243 103.05 255.857 99.0801 258.072 96.393C260.287 93.7069 264.264 93.3216 266.954 95.5329Z" fill="#19141E"/>
<path fill-rule="evenodd" clip-rule="evenodd" d="M238.163 89.6618C244.02 94.4752 244.86 103.118 240.039 108.966C235.218 114.814 226.562 115.652 220.705 110.839C214.848 106.026 214.008 97.3825 218.829 91.5346C223.65 85.6867 232.306 84.8485 238.163 89.6618Z" fill="white"/>
<path fill-rule="evenodd" clip-rule="evenodd" d="M230.824 95.5329C233.514 97.7443 233.9 101.714 231.685 104.401C229.47 107.087 225.494 107.473 222.804 105.261C220.113 103.05 219.727 99.0801 221.942 96.393C224.156 93.7069 228.134 93.3216 230.824 95.5329Z" fill="#19141E"/>
</svg>
